<svg xmlns="http://www.w3.org/2000/svg" viewBox="0 0 1366 768">
  <rect fill="#e2e2e2" width="1366" height="768"/>
  <path fill="#e8e8e8" d="M1366,768V84.8C899.16,94.72,497.91,371.11,308.24,768Z"/>
  <path fill="#f4f4f4" d="M1366,768V560.53A830.25,830.25,0,0,0,1222,548c-216.6,0-413.69,83.47-560.89,220Z"/>
  <path fill="#efefef" d="M0,629.24A629.75,629.75,0,0,0,290,699.5c349.32,0,632.5-283.18,632.5-632.5A639.24,639.24,0,0,0,919,0H0Z"/>
  <path fill="#f7f7f7" d="M0,768H330.21C510.58,693.45,637.5,515.8,637.5,308.5A494.89,494.89,0,0,0,530.18,0H0Z"/>
</svg>